<svg xmlns="http://www.w3.org/2000/svg" viewBox="0 0 55.05 95.16"><g id="Layer_2" data-name="Layer 2"><g id="Layer_1-2" data-name="Layer 1"><path d="M.49,43.06l2.2-4a37.12,37.12,0,0,1,14.7-14.7c3.5-1.9,5.1-2.4,6.7-2.4l7.4.5c2.2.1,3.8,1.1,10.2,9.3a28.26,28.26,0,0,0,6.7,6.2L53,41a4.48,4.48,0,0,1-4.9,7.5l-4.6-3a36.64,36.64,0,0,1-8.5-7.7l-3.6,17.1,7,6.8a20.39,20.39,0,0,1,5.7,10.1l4.1,16.7a5.39,5.39,0,0,1-4,6.5,5.85,5.85,0,0,1-1.3.2,5.33,5.33,0,0,1-5.2-4.1l-4.1-16.7a10,10,0,0,0-2.8-4.9l-7-6.8-.7,4.7a27.54,27.54,0,0,1-2.1,6.9l-8.4,17.8a5.52,5.52,0,0,1-4.9,3.1,6.35,6.35,0,0,1-2.3-.5,5.49,5.49,0,0,1-2.6-7.2l8.4-17.8a13.56,13.56,0,0,0,1.2-3.9l2.4-16L16.49,36a30,30,0,0,0-5.9,7.3l-2.2,4a4.45,4.45,0,0,1-3.9,2.3,5,5,0,0,1-2.1-.5A4.45,4.45,0,0,1,.49,43.06Z"/><circle cx="29.15" cy="9.9" r="9.9"/></g></g></svg>